<?xml version="1.0" encoding="UTF-8"?>
<svg width="148px" height="36px" viewBox="0 0 148 36" version="1.1" xmlns="http://www.w3.org/2000/svg" xmlns:xlink="http://www.w3.org/1999/xlink">
    <!-- Generator: Sketch 51.1 (57501) - http://www.bohemiancoding.com/sketch -->
    <title>logo_teachme</title>
    <desc>Created with Sketch.</desc>
    <defs></defs>
    <g id="Symbols" stroke="none" stroke-width="1" fill="none" fill-rule="evenodd">
        <g id="nav-bar-users" transform="translate(-250.000000, -32.000000)" fill-rule="nonzero">
            <g id="Group-5">
                <g id="logo_teachme" transform="translate(250.000000, 32.000000)">
                    <path d="M69,23 L63.970439,23 L62.6851496,20.0547855 L53.3148504,20.0547855 L52.0334091,23 L47,23 L57.2361378,0 L58.7754067,0 L69,23 Z M54.9464754,16.2556106 L61.018891,16.2556106 L58.0019241,8.62310231 L54.9464754,16.2556106 Z" id="Shape" fill="#100440"></path>
                    <path d="M77.2766393,0.00371801609 C78.8328901,-0.0440863914 80.3693073,0.369961301 81.6996053,1.19565915 C82.86562,1.93531214 83.8237416,2.9710099 84.4803809,4.20158571 L81.4551014,6.58546799 C80.9923754,5.84307559 80.3879645,5.20335759 79.6778865,4.70443588 C78.9770386,4.24786698 78.1589414,4.01447528 77.3277297,4.03396899 C76.6552703,4.0136379 75.9917202,4.19493629 75.4191396,4.55544324 C74.8857456,4.91151724 74.5827902,5.53423924 74.6272389,6.18318785 C74.5880502,6.76158263 74.8362197,7.32137068 75.2877643,7.67311428 C75.8752468,8.09551961 76.5038161,8.45500103 77.1635107,8.7458613 L79.6304455,9.86330612 C81.1008633,10.4827929 82.4449667,11.3771892 83.5935982,12.5004759 C84.5511201,13.5354504 85.0567274,14.9223841 84.9949339,16.3444861 C85.009805,17.3087966 84.8062336,18.2635797 84.4000961,19.1343733 C84.0193947,19.9445055 83.4701869,20.660155 82.7907496,21.2314447 C82.078644,21.8214478 81.2622584,22.2665364 80.385853,22.54258 C79.4176519,22.8522164 78.4079964,23.0055415 77.3934173,22.9970075 C73.9186667,23.085747 70.6837965,21.1951079 69,18.0914248 L72.0617727,15.7410659 C72.3481323,16.1691074 72.6665768,16.5738421 73.0142431,16.9516311 C73.3684934,17.3340067 73.7611252,17.6773329 74.1856722,17.9759555 C74.6268786,18.2842427 75.1084602,18.5275076 75.6162024,18.6985698 C76.1905989,18.8850396 76.7907301,18.9756011 77.3934173,18.9667566 C78.1930781,19.0166465 78.9859925,18.7910338 79.6450427,18.3260882 C80.1887585,17.89277 80.4900503,17.2151007 80.4515406,16.5121028 C80.4900776,15.8843448 80.2155719,15.2791446 79.7216783,14.9029822 C79.0811453,14.4526763 78.397688,14.069559 77.6817129,13.7594637 L75.3680492,12.6680926 C74.6349821,12.3319401 73.9253524,11.9448937 73.2441497,11.5096748 C72.6314783,11.1241191 72.0729025,10.6554826 71.5837128,10.1165936 C71.1247599,9.61412642 70.7543739,9.03445086 70.4889192,8.40317822 C70.21758,7.73275421 70.0834561,7.01276715 70.0947936,6.2874827 C70.0809855,5.38599522 70.2721027,4.49351182 70.6531383,3.68011146 C71.018663,2.92003783 71.5342896,2.24536585 72.1676027,1.69850932 C72.8366798,1.13197213 73.6077436,0.704300482 74.4374747,0.439521495 C75.3553965,0.142216604 76.3136478,-0.0048721722 77.2766393,0.00371801609 Z" id="Shape" fill="#100440"></path>
                    <path d="M94.2948859,0.00369878879 C95.8522722,-0.0439733555 97.3898222,0.370038372 98.7215012,1.19564092 C99.8855413,1.93658754 100.842189,2.97205172 101.498628,4.20156999 L98.473348,6.58545426 C98.0052891,5.84125326 97.3945496,5.20140573 96.6778865,4.70442058 C95.9770386,4.2478513 95.1589414,4.0144594 94.3277297,4.03395313 C93.6552703,4.01362203 92.9917202,4.19492056 92.4191396,4.55542782 C91.8857456,4.91150212 91.5827902,5.53422464 91.6272389,6.18317379 C91.5880502,6.76156905 91.8362197,7.32135758 92.2877643,7.67310146 C92.8752468,8.09550715 93.5038161,8.45498887 94.1635107,8.74584938 L96.6304455,9.86329513 C98.1008633,10.4827824 99.4449667,11.3771795 100.593598,12.5004671 C101.55112,13.5354425 102.056727,14.9223774 101.994934,16.3444805 C102.009805,17.3087919 101.806234,18.2635758 101.400096,19.1343701 C101.019395,19.9445029 100.470187,20.6601531 99.7907496,21.2314432 C99.078644,21.8214468 98.2622584,22.2665358 97.385853,22.5425796 C96.4176519,22.8522163 95.4079964,23.0055415 94.3934173,22.9970075 C90.9186667,23.0857471 87.6837965,21.1951064 86,18.0914207 L89.0617727,15.7410598 C89.3481323,16.1691017 89.6665768,16.5738367 90.0142431,16.951626 C90.3684934,17.334002 90.7611252,17.6773285 91.1856722,17.9759513 C91.6272923,18.2835173 92.1087713,18.5267306 92.6162024,18.6985662 C93.1905989,18.8850362 93.7907301,18.9755978 94.3934173,18.9667532 C95.1930781,19.0166432 95.9859925,18.7910303 96.6450427,18.3260843 C97.1887585,17.8927657 97.4900503,17.2150959 97.4515406,16.5120974 C97.4900776,15.8843388 97.2155719,15.2791382 96.7216783,14.9029755 C96.0811453,14.4526692 95.397688,14.0695515 94.6817129,13.759456 L92.3862958,12.668084 C91.6532287,12.3319312 90.9435989,11.9448844 90.2623963,11.5096652 C89.6497248,11.1241091 89.0911491,10.6554723 88.6019594,10.1165828 C88.1430065,9.61411523 87.7726205,9.03443919 87.5071658,8.40316602 C87.2365861,7.7313179 87.1036964,7.01002103 87.1166894,6.28374391 C87.1028814,5.38225568 87.2939985,4.48977153 87.6750341,3.67637049 C88.0405589,2.91629622 88.5561855,2.24162368 89.1894986,1.69476669 C89.8585757,1.12822903 90.6296394,0.700557021 91.4593706,0.435777813 C92.3763262,0.14012401 93.3333111,-0.00570243898 94.2948859,0.00369878879 Z" id="Shape" fill="#100440"></path>
                    <polygon id="Shape" fill="#100440" points="109 22 105 22 105 1 109 1"></polygon>
                    <path d="M120.291252,0.00369876157 C121.848642,-0.043973032 123.386195,0.37003565 124.717876,1.19563213 C125.88294,1.93646958 126.840798,2.97187383 127.498657,4.20153908 L124.469722,6.58540581 C124.00301,5.84257011 123.394941,5.20292603 122.681556,4.70438597 C121.979305,4.2479369 121.160083,4.01458883 120.327745,4.03392345 C119.655335,4.01402964 118.991904,4.19529386 118.419152,4.5553943 C117.887747,4.91291986 117.586454,5.53508567 117.630899,6.1831283 C117.592193,6.76059784 117.838662,7.31963457 118.287776,7.67304501 C118.875724,8.09469468 119.504217,8.45412926 120.163526,8.74578504 L122.630466,9.86322257 C124.101624,10.4833824 125.446811,11.3776687 126.597275,12.5003751 C127.552386,13.5366363 128.056475,14.9230033 127.994964,16.3443602 C128.009275,17.3082001 127.807038,18.2625736 127.403775,19.1342293 C127.021714,19.9445274 126.471284,20.6601401 125.790776,21.231287 C125.080009,21.8212552 124.26482,22.2663633 123.389524,22.5424137 C122.420074,22.8520745 121.409212,23.0053946 120.393433,22.9968383 C116.918046,23.0881229 113.681967,21.1967932 112,18.0912876 L115.058129,15.740944 C115.34575,16.1690438 115.665413,16.5737723 116.014251,16.9515013 C116.367207,17.3338313 116.758626,17.6771636 117.182033,17.975819 C117.623654,18.2833828 118.105134,18.5265943 118.612566,18.6984286 C119.187035,18.8845797 119.787117,18.9751329 120.389784,18.9666136 C121.190583,19.0164772 121.984644,18.7909056 122.645063,18.3259495 C123.187271,17.8914234 123.488186,17.2146074 123.451562,16.5119759 C123.490099,15.8842219 123.215593,15.2790257 122.721699,14.9028658 C122.081641,14.4517747 121.398102,14.0686146 120.681729,13.7593548 L118.382659,12.6679908 C117.651141,12.3310579 116.942775,11.944039 116.262404,11.5095805 C115.647943,11.1250242 115.088034,10.656303 114.598315,10.1165084 C114.140449,9.61317645 113.770191,9.0337068 113.503519,8.40310419 C113.229123,7.73350756 113.093682,7.0131278 113.105744,6.28742247 C113.091331,5.38546704 113.283788,4.49257125 113.667739,3.68006823 C114.031926,2.92017061 114.546331,2.2454767 115.178557,1.69847902 C115.848984,1.13192004 116.621245,0.704275456 117.452082,0.439499398 C118.370006,0.142196447 119.328259,-0.0048913707 120.291252,0.00369876157 Z" id="Shape" fill="#100440"></path>
                    <polygon id="Shape" fill="#100440" points="148 4.88104839 140.777734 4.88104839 140.777734 22 136.176938 22 136.176938 4.88104839 129 4.88104839 129 1 148 1"></polygon>
                    <polygon id="Shape" fill="#100440" points="53.9926316 28.8481177 51.0010526 28.8481177 51.0010526 36 49.9952632 36 49.9952632 28.8481177 47 28.8481177 47 28 54 28"></polygon>
                    <polygon id="Shape" fill="#100440" points="65.8621142 28.8481177 61.8962574 28.8481177 61.8962574 31.2990048 64.9330269 31.2990048 64.9330269 32.1471225 61.8962574 32.1471225 61.8962574 35.1518823 66 35.1518823 66 36 61 36 61 28 65.8621142 28"></polygon>
                    <path d="M81,36 L79.8858361,36 L79.1279015,34.4047619 L74.8569398,34.4047619 L74.0990052,36 L73,36 L76.8199905,28 L77.1989578,28 L81,36 Z M75.2434865,33.5714286 L78.7451445,33.5714286 L77.0056845,29.7244898 L75.2434865,33.5714286 Z" id="Shape" fill="#100440"></path>
                    <path d="M91.4399519,27.0006469 C92.1661485,26.9877864 92.8832243,27.1668777 93.5212677,27.5204603 C94.1147655,27.8419896 94.6223433,28.3061583 95,28.8727285 L94.2606338,29.4791774 C93.9498178,29.0182485 93.5434548,28.6324875 93.0702543,28.3491483 C92.5836741,28.0726752 92.0339562,27.9323211 91.4769202,27.9423378 C91.0148807,27.9379364 90.5568748,28.0302448 90.1312738,28.2135448 C89.7256277,28.3885858 89.3585623,28.6447564 89.0517992,28.9668976 C88.735207,29.290699 88.4840112,29.6746204 88.312433,30.0969267 C87.9674713,31.00452 87.9674713,32.0106394 88.312433,32.9182327 C88.828562,34.2235258 90.0773918,35.0728252 91.4584361,35.0577545 C92.0157874,35.0664425 92.5654813,34.9247949 93.0517701,34.6471773 C93.5259974,34.3652435 93.932637,33.9792199 94.2421497,33.5171482 L94.9815158,34.1235971 C94.6214501,34.6945353 94.1221194,35.1604812 93.5323582,35.4758653 C92.8894278,35.8310352 92.1675059,36.0113622 91.4362551,35.9994455 C90.8411084,36.0049262 90.2507208,35.8910145 89.6987446,35.6642035 C89.1726122,35.4430286 88.6931656,35.1207613 88.2865552,34.714979 C87.8829926,34.3056705 87.5626457,33.8192602 87.3438633,33.2836088 C86.8853789,32.1469734 86.8853789,30.8719527 87.3438633,29.7353174 C87.5616927,29.1991452 87.8821585,28.7125544 88.2865552,28.3039471 C88.6921018,27.896824 89.1718211,27.5743734 89.6987446,27.3547227 C90.2500667,27.1192366 90.8421504,26.9988359 91.4399519,27.0006469 Z" id="Shape" fill="#100440"></path>
                    <polygon id="Shape" fill="#100440" points="109 36 107.964789 36 107.964789 32.1471225 103.035211 32.1471225 103.035211 36 102 36 102 28 103.035211 28 103.035211 31.2990048 107.964789 31.2990048 107.964789 28 109 28"></polygon>
                    <polygon id="Shape" fill="#100440" points="133.992495 36 132.968105 36 132.968105 30.3435374 130.183865 33.7823129 129.827392 33.7823129 127.02439 30.3333333 127.02439 36 126 36 126 28 126.375235 28 130 32.547619 133.624765 28 134 28"></polygon>
                    <polygon id="Shape" fill="#100440" points="147.993434 28.8481177 143.896257 28.8481177 143.896257 31.2990048 146.929744 31.2990048 146.929744 32.1471225 143.896257 32.1471225 143.896257 35.1518823 148 35.1518823 148 36 143 36 143 28 147.993434 28"></polygon>
                    <path d="M10.021034,1.06415836 C4.50815805,-1.69245689 0,1.09404037 0,7.25720455 L0,28.7348979 C0,34.8980621 4.50815805,37.6995003 10.021034,34.9316793 L33.865343,23.0087581 C39.378219,20.2521428 39.378219,15.7436949 33.865343,12.9870796 L10.021034,1.06415836 Z M8.62413996,20.3940824 C7.65428927,20.3940824 6.77993633,19.8098208 6.40879054,18.913738 C6.03764475,18.0176552 6.24279692,16.9862192 6.92858492,16.3003871 C7.61437292,15.614555 8.64574254,15.4093897 9.54176774,15.7805593 C10.4377929,16.151729 11.0220169,17.0261382 11.0220169,17.9960512 C11.0230103,18.6323527 10.7706966,19.2428786 10.3207919,19.6928123 C9.87088721,20.1427459 9.26040048,20.3950758 8.62413996,20.3940824 Z M16.6506782,20.3940824 C15.6808275,20.3940824 14.8064746,19.8098208 14.4353288,18.913738 C14.064183,18.0176552 14.2693352,16.9862192 14.9551232,16.3003871 C15.6409112,15.614555 16.6722808,15.4093897 17.568306,15.7805593 C18.4643312,16.151729 19.0485551,17.0261382 19.0485551,17.9960512 C19.0485551,19.3204473 17.9749891,20.3940824 16.6506782,20.3940824 Z M24.6809514,20.3940824 C23.7111008,20.3940824 22.8367478,19.8098208 22.465602,18.913738 C22.0944562,18.0176552 22.2996084,16.9862192 22.9853964,16.3003871 C23.6711844,15.614555 24.702554,15.4093897 25.5985792,15.7805593 C26.4946044,16.151729 27.0788284,17.0261382 27.0788284,17.9960512 C27.0798218,18.6323527 26.827508,19.2428786 26.3776034,19.6928123 C25.9276987,20.1427459 25.317212,20.3950758 24.6809514,20.3940824 Z" id="Shape" fill="#0087FF"></path>
                </g>
            </g>
        </g>
    </g>
</svg>